<?xml version="1.0" encoding="UTF-8"?>
<svg xmlns="http://www.w3.org/2000/svg" version="1.1" viewBox="0 0 600 600">
  <defs>
    <style>
      .cls-1 {
        fill: #fff;
      }

      .cls-2 {
        fill: #ed1c24;
      }

      .cls-3 {
        fill: #fef4f4;
      }

      .cls-4 {
        fill: #2e3192;
      }

      .cls-5 {
        fill: none;
        stroke: #231f20;
        stroke-miterlimit: 10;
      }
    </style>
  </defs>
  <!-- Generator: Adobe Illustrator 28.7.1, SVG Export Plug-In . SVG Version: 1.2.0 Build 142)  -->
  <g>
    <g id="Layer_1">
      <circle class="cls-5" cx="290.56" cy="235" r="113.03"/>
      <path class="cls-2" d="M290.56,177.87c31.5,0,57.13,25.63,57.13,57.13s-25.63,57.13-57.13,57.13-57.13-25.63-57.13-57.13,25.63-57.13,57.13-57.13M290.56,152.87c-45.36,0-82.13,36.77-82.13,82.13s36.77,82.13,82.13,82.13,82.13-36.77,82.13-82.13-36.77-82.13-82.13-82.13h0Z"/>
      <rect class="cls-4" x="200.56" y="220" width="180" height="30"/>
      <g>
        <g>
          <path class="cls-1" d="M212.56,246.82v-23.65h8.5c3.04,0,5.36.56,6.94,1.67,1.59,1.12,2.38,2.73,2.38,4.86,0,1.22-.28,2.27-.84,3.14-.56.87-1.39,1.51-2.49,1.92,1.23.32,2.18.93,2.84,1.82.66.89.99,1.97.99,3.25,0,2.32-.73,4.06-2.2,5.22-1.47,1.16-3.64,1.76-6.52,1.78h-9.6ZM218.26,233.03h2.97c1.25-.01,2.13-.24,2.66-.68.53-.45.8-1.1.8-1.97,0-1-.29-1.72-.86-2.16-.57-.44-1.5-.66-2.78-.66h-2.79v5.47ZM218.26,236.77v5.67h3.74c1.03,0,1.82-.24,2.37-.71s.83-1.13.83-1.99c0-1.97-.98-2.96-2.94-2.97h-4Z"/>
          <path class="cls-1" d="M245,236.74h-7.31v4.95h8.58v3.06h-12.39v-18.48h12.36v3.08h-8.55v4.4h7.31v2.98Z"/>
          <path class="cls-1" d="M258.94,240.94h-6.68l-1.27,3.81h-4.05l6.88-18.48h3.53l6.92,18.48h-4.05l-1.28-3.81ZM253.29,237.85h4.62l-2.32-6.92-2.3,6.92Z"/>
          <path class="cls-1" d="M279.9,229.35h-5.66v15.39h-3.81v-15.39h-5.58v-3.08h15.05v3.08Z"/>
          <path class="cls-1" d="M299.33,237.18h-17.52v-3h17.52v3Z"/>
          <path class="cls-1" d="M316.42,238.59c-.14,1.99-.88,3.55-2.2,4.7-1.32,1.14-3.07,1.71-5.23,1.71-2.37,0-4.23-.8-5.59-2.39-1.36-1.6-2.04-3.78-2.04-6.57v-1.13c0-1.78.31-3.34.94-4.7.63-1.35,1.52-2.39,2.68-3.12,1.16-.72,2.51-1.09,4.06-1.09,2.13,0,3.85.57,5.15,1.71,1.3,1.14,2.06,2.75,2.26,4.81h-3.81c-.09-1.19-.43-2.06-1-2.6-.57-.54-1.44-.81-2.61-.81-1.27,0-2.22.45-2.85,1.36-.63.91-.95,2.32-.97,4.23v1.4c0,2,.3,3.46.91,4.38.6.92,1.56,1.38,2.86,1.38,1.18,0,2.05-.27,2.63-.81.58-.54.91-1.37,1-2.49h3.81Z"/>
          <path class="cls-1" d="M322.72,241.69h8.09v3.06h-11.89v-18.48h3.81v15.42Z"/>
          <path class="cls-1" d="M346.98,226.26v12.17c0,2.02-.63,3.62-1.9,4.8-1.27,1.18-2.99,1.76-5.18,1.76s-3.87-.57-5.14-1.71-1.92-2.71-1.94-4.71v-12.31h3.81v12.2c0,1.21.29,2.09.87,2.65.58.55,1.38.83,2.41.83,2.14,0,3.23-1.12,3.26-3.38v-12.3h3.82Z"/>
          <path class="cls-1" d="M350.24,246.82v-23.65h8.5c3.04,0,5.36.56,6.94,1.67,1.59,1.12,2.38,2.73,2.38,4.86,0,1.22-.28,2.27-.84,3.14-.56.87-1.39,1.51-2.49,1.92,1.23.32,2.18.93,2.84,1.82.66.89.99,1.97.99,3.25,0,2.32-.73,4.06-2.2,5.22-1.47,1.16-3.64,1.76-6.52,1.78h-9.6ZM355.94,233.03h2.97c1.24-.01,2.13-.24,2.66-.68.53-.45.8-1.1.8-1.97,0-1-.29-1.72-.86-2.16-.57-.44-1.5-.66-2.78-.66h-2.79v5.47ZM355.94,236.77v5.67h3.74c1.03,0,1.82-.24,2.37-.71s.83-1.13.83-1.99c0-1.97-.98-2.96-2.94-2.97h-4Z"/>
        </g>
        <g>
          <path class="cls-3" d="M212.56,246.82v-23.65h8.5c3.04,0,5.36.56,6.94,1.67,1.59,1.12,2.38,2.73,2.38,4.86,0,1.22-.28,2.27-.84,3.14-.56.87-1.39,1.51-2.49,1.92,1.23.32,2.18.93,2.84,1.82.66.89.99,1.97.99,3.25,0,2.32-.73,4.06-2.2,5.22-1.47,1.16-3.64,1.76-6.52,1.78h-9.6ZM218.26,233.03h2.97c1.25-.01,2.13-.24,2.66-.68.53-.45.8-1.1.8-1.97,0-1-.29-1.72-.86-2.16-.57-.44-1.5-.66-2.78-.66h-2.79v5.47ZM218.26,236.77v5.67h3.74c1.03,0,1.82-.24,2.37-.71s.83-1.13.83-1.99c0-1.97-.98-2.96-2.94-2.97h-4Z"/>
          <path class="cls-3" d="M245,236.74h-7.31v4.95h8.58v3.06h-12.39v-18.48h12.36v3.08h-8.55v4.4h7.31v2.98Z"/>
          <path class="cls-3" d="M258.94,240.94h-6.68l-1.27,3.81h-4.05l6.88-18.48h3.53l6.92,18.48h-4.05l-1.28-3.81ZM253.29,237.85h4.62l-2.32-6.92-2.3,6.92Z"/>
          <path class="cls-3" d="M279.9,229.35h-5.66v15.39h-3.81v-15.39h-5.58v-3.08h15.05v3.08Z"/>
          <path class="cls-3" d="M299.33,237.18h-17.52v-3h17.52v3Z"/>
          <path class="cls-3" d="M316.42,238.59c-.14,1.99-.88,3.55-2.2,4.7-1.32,1.14-3.07,1.71-5.23,1.71-2.37,0-4.23-.8-5.59-2.39-1.36-1.6-2.04-3.78-2.04-6.57v-1.13c0-1.78.31-3.34.94-4.7.63-1.35,1.52-2.39,2.68-3.12,1.16-.72,2.51-1.09,4.06-1.09,2.13,0,3.85.57,5.15,1.71,1.3,1.14,2.06,2.75,2.26,4.81h-3.81c-.09-1.19-.43-2.06-1-2.6-.57-.54-1.44-.81-2.61-.81-1.27,0-2.22.45-2.85,1.36-.63.91-.95,2.32-.97,4.23v1.4c0,2,.3,3.46.91,4.38.6.92,1.56,1.38,2.86,1.38,1.18,0,2.05-.27,2.63-.81.58-.54.91-1.37,1-2.49h3.81Z"/>
          <path class="cls-3" d="M322.72,241.69h8.09v3.06h-11.89v-18.48h3.81v15.42Z"/>
          <path class="cls-3" d="M346.98,226.26v12.17c0,2.02-.63,3.62-1.9,4.8-1.27,1.18-2.99,1.76-5.18,1.76s-3.87-.57-5.14-1.71-1.92-2.71-1.94-4.71v-12.31h3.81v12.2c0,1.21.29,2.09.87,2.65.58.55,1.38.83,2.41.83,2.14,0,3.23-1.12,3.26-3.38v-12.3h3.82Z"/>
          <path class="cls-3" d="M350.24,246.82v-23.65h8.5c3.04,0,5.36.56,6.94,1.67,1.59,1.12,2.38,2.73,2.38,4.86,0,1.22-.28,2.27-.84,3.14-.56.87-1.39,1.51-2.49,1.92,1.23.32,2.18.93,2.84,1.82.66.89.99,1.97.99,3.25,0,2.32-.73,4.06-2.2,5.22-1.47,1.16-3.64,1.76-6.52,1.78h-9.6ZM355.94,233.03h2.97c1.24-.01,2.13-.24,2.66-.68.53-.45.8-1.1.8-1.97,0-1-.29-1.72-.86-2.16-.57-.44-1.5-.66-2.78-.66h-2.79v5.47ZM355.94,236.77v5.67h3.74c1.03,0,1.82-.24,2.37-.71s.83-1.13.83-1.99c0-1.97-.98-2.96-2.94-2.97h-4Z"/>
        </g>
      </g>
    </g>
  </g>
</svg>