<?xml version="1.0" encoding="UTF-8"?>
<svg xmlns="http://www.w3.org/2000/svg" version="1.1" viewBox="0 0 355.32 173.76">
  <defs>
    <style>
      .cls-1 {
        fill: #231f20;
      }

      .cls-2 {
        fill: #27aae1;
      }
    </style>
  </defs>
  <!-- Generator: Adobe Illustrator 28.7.1, SVG Export Plug-In . SVG Version: 1.2.0 Build 142)  -->
  <g>
    <g id="Layer_1">
      <g>
        <path class="cls-2" d="M191.56,66.82c-4.38,7.38-10.76,11.07-19.16,11.07-7.54,0-13.57-2.6-18.11-7.79-4.53-5.19-6.99-12.25-7.38-21.15l-.06-3.52c0-10.2,2.29-18.3,6.86-24.32,4.57-6.02,10.84-9.02,18.81-9.02s14.45,3.69,18.75,11.07l1.41-9.9h14.94l-6.33,31.76,6.74,31.64h-14.94l-1.52-9.84ZM163.84,46.64c0,11.74,4,17.6,12.01,17.6,3.52,0,6.34-1.42,8.47-4.25s3.39-6.93,3.78-12.29v-3.87c-.27-5.67-1.46-10.1-3.57-13.29-2.11-3.19-4.96-4.78-8.55-4.78-3.87,0-6.86,1.68-8.96,5.05s-3.16,8.65-3.16,15.84Z"/>
        <path class="cls-1" d="M39.22,148.27h-21.45l-4.82,13.39h-6.96l19.55-51.19h5.91l19.58,51.19h-6.93l-4.89-13.39ZM19.81,142.75h17.4l-8.72-23.94-8.68,23.94Z"/>
        <path class="cls-1" d="M93.51,156.15h24.26v5.52h-31.04v-51.19h6.79v45.67Z"/>
        <path class="cls-1" d="M161.01,141.63v20.04h-6.75v-51.19h18.88c5.6,0,9.99,1.43,13.17,4.29,3.18,2.86,4.76,6.64,4.76,11.36,0,4.97-1.55,8.79-4.66,11.48-3.11,2.68-7.55,4.03-13.34,4.03h-12.06ZM161.01,136.11h12.13c3.61,0,6.38-.85,8.3-2.55,1.92-1.7,2.88-4.16,2.88-7.38s-.96-5.49-2.88-7.33-4.56-2.78-7.91-2.85h-12.52v20.11Z"/>
        <path class="cls-1" d="M267.82,161.66h-6.79v-23.66h-25.8v23.66h-6.75v-51.19h6.75v22.01h25.8v-22.01h6.79v51.19Z"/>
        <path class="cls-1" d="M337.51,148.27h-21.45l-4.82,13.39h-6.96l19.55-51.19h5.91l19.58,51.19h-6.93l-4.89-13.39ZM318.11,142.75h17.4l-8.72-23.94-8.68,23.94Z"/>
      </g>
    </g>
  </g>
</svg>