<?xml version="1.0" encoding="UTF-8"?>
<svg xmlns="http://www.w3.org/2000/svg" version="1.1" viewBox="0 0 283.46 161.57">
  <defs>
    <style>
      .cls-1 {
        fill: #231f20;
      }

      .cls-2 {
        font-family: Roboto-Bold, Roboto;
        font-size: 119px;
        font-weight: 700;
      }

      .cls-2, .cls-3 {
        fill: #3fa552;
      }
    </style>
  </defs>
  <!-- Generator: Adobe Illustrator 28.7.1, SVG Export Plug-In . SVG Version: 1.2.0 Build 142)  -->
  <g>
    <g id="Layer_1">
      <g>
        <polygon class="cls-3" points="44.59 1.99 38.92 1.99 38.92 72.86 44.59 72.86 44.59 58.68 129.63 30.34 44.59 1.99"/>
        <text class="cls-2" transform="translate(1.71 157.87)"><tspan x="0" y="0">A</tspan></text>
        <g>
          <path class="cls-1" d="M98.64,95.82h-11.91l-2.68,7.44h-3.87l10.86-28.44h3.28l10.88,28.44h-3.85l-2.71-7.44ZM87.86,92.76h9.67l-4.84-13.3-4.82,13.3Z"/>
          <path class="cls-1" d="M113.48,82.13l.12,2.66c1.61-2.03,3.72-3.05,6.33-3.05,4.47,0,6.72,2.52,6.76,7.56v13.96h-3.61v-13.98c-.01-1.52-.36-2.65-1.04-3.38-.68-.73-1.75-1.09-3.19-1.09-1.17,0-2.2.31-3.09.94-.89.62-1.58,1.45-2.07,2.46v15.06h-3.61v-21.13h3.42Z"/>
          <path class="cls-1" d="M137.15,82.13l.12,2.66c1.61-2.03,3.72-3.05,6.33-3.05,4.47,0,6.72,2.52,6.76,7.56v13.96h-3.61v-13.98c-.01-1.52-.36-2.65-1.04-3.38-.68-.73-1.75-1.09-3.19-1.09-1.17,0-2.2.31-3.09.94-.89.62-1.58,1.45-2.07,2.46v15.06h-3.61v-21.13h3.42Z"/>
          <path class="cls-1" d="M166.17,103.66c-2.86,0-5.2-.94-6.99-2.82-1.8-1.88-2.7-4.4-2.7-7.55v-.66c0-2.1.4-3.97,1.2-5.62.8-1.65,1.92-2.94,3.36-3.87,1.44-.93,3-1.4,4.68-1.4,2.75,0,4.88.91,6.41,2.71,1.52,1.81,2.29,4.4,2.29,7.77v1.5h-14.32c.05,2.08.66,3.77,1.83,5.05,1.17,1.28,2.65,1.92,4.44,1.92,1.28,0,2.36-.26,3.24-.78.89-.52,1.66-1.21,2.32-2.07l2.21,1.72c-1.77,2.72-4.43,4.08-7.97,4.08ZM165.72,84.71c-1.46,0-2.68.53-3.67,1.59-.99,1.06-1.6,2.55-1.84,4.46h10.59v-.27c-.1-1.84-.6-3.26-1.48-4.27-.89-1.01-2.08-1.51-3.59-1.51Z"/>
          <path class="cls-1" d="M198.08,92.93c0,3.23-.74,5.82-2.23,7.78-1.48,1.96-3.48,2.94-5.98,2.94-2.67,0-4.73-.94-6.19-2.83l-.18,2.44h-3.32v-30h3.61v11.19c1.46-1.81,3.47-2.71,6.04-2.71s4.58.97,6.04,2.91c1.46,1.94,2.2,4.6,2.2,7.97v.31ZM194.47,92.52c0-2.46-.48-4.36-1.43-5.7-.95-1.34-2.32-2.01-4.1-2.01-2.38,0-4.1,1.11-5.14,3.32v9.14c1.11,2.21,2.83,3.32,5.18,3.32,1.73,0,3.08-.67,4.04-2.01.96-1.34,1.45-3.36,1.45-6.05Z"/>
          <path class="cls-1" d="M213,103.66c-2.87,0-5.2-.94-6.99-2.82-1.8-1.88-2.7-4.4-2.7-7.55v-.66c0-2.1.4-3.97,1.2-5.62.8-1.65,1.92-2.94,3.36-3.87,1.44-.93,3-1.4,4.68-1.4,2.75,0,4.88.91,6.41,2.71,1.52,1.81,2.29,4.4,2.29,7.77v1.5h-14.32c.05,2.08.66,3.77,1.83,5.05,1.17,1.28,2.65,1.92,4.44,1.92,1.28,0,2.36-.26,3.24-.78.88-.52,1.66-1.21,2.32-2.07l2.21,1.72c-1.77,2.72-4.43,4.08-7.97,4.08ZM212.56,84.71c-1.46,0-2.68.53-3.67,1.59-.99,1.06-1.6,2.55-1.84,4.46h10.59v-.27c-.1-1.84-.6-3.26-1.48-4.27-.89-1.01-2.08-1.51-3.59-1.51Z"/>
          <path class="cls-1" d="M237.24,85.37c-.55-.09-1.14-.14-1.78-.14-2.37,0-3.98,1.01-4.82,3.03v15h-3.61v-21.13h3.52l.06,2.44c1.18-1.89,2.86-2.83,5.04-2.83.7,0,1.24.09,1.6.27v3.36Z"/>
          <path class="cls-1" d="M240.93,92.52c0-3.29.76-5.91,2.29-7.86,1.52-1.95,3.54-2.92,6.05-2.92s4.59.91,6.04,2.73l.18-2.34h3.3v20.62c0,2.73-.81,4.89-2.43,6.46-1.62,1.58-3.8,2.36-6.53,2.36-1.52,0-3.01-.33-4.47-.98-1.46-.65-2.57-1.54-3.34-2.68l1.88-2.17c1.55,1.91,3.44,2.87,5.68,2.87,1.76,0,3.13-.5,4.11-1.48.98-.99,1.47-2.38,1.47-4.18v-1.82c-1.45,1.67-3.42,2.5-5.92,2.5s-4.48-1-6.01-2.99c-1.53-1.99-2.29-4.71-2.29-8.14ZM244.56,92.93c0,2.38.49,4.25,1.46,5.62.98,1.36,2.34,2.04,4.1,2.04,2.28,0,3.95-1.04,5.02-3.11v-9.65c-1.11-2.02-2.77-3.03-4.98-3.03-1.76,0-3.13.68-4.12,2.05-.99,1.37-1.48,3.39-1.48,6.07Z"/>
          <path class="cls-1" d="M278.14,97.66c0-.98-.37-1.73-1.1-2.28-.74-.54-2.02-1.01-3.85-1.4s-3.28-.86-4.36-1.41-1.87-1.2-2.38-1.95c-.51-.75-.77-1.65-.77-2.7,0-1.73.73-3.2,2.2-4.39,1.46-1.2,3.34-1.8,5.62-1.8,2.4,0,4.34.62,5.83,1.86,1.49,1.24,2.24,2.82,2.24,4.75h-3.63c0-.99-.42-1.84-1.26-2.56-.84-.72-1.9-1.07-3.17-1.07s-2.34.29-3.09.86c-.74.57-1.11,1.32-1.11,2.25,0,.87.34,1.53,1.04,1.97.69.44,1.94.87,3.74,1.27,1.8.4,3.26.89,4.38,1.45,1.12.56,1.95,1.23,2.49,2.02.54.79.81,1.75.81,2.88,0,1.89-.75,3.4-2.27,4.54-1.51,1.14-3.47,1.71-5.88,1.71-1.69,0-3.19-.3-4.49-.9s-2.32-1.44-3.06-2.51c-.74-1.07-1.1-2.24-1.1-3.49h3.61c.07,1.21.55,2.17,1.46,2.88.91.71,2.1,1.06,3.58,1.06,1.37,0,2.46-.28,3.29-.83.83-.55,1.24-1.29,1.24-2.22Z"/>
          <path class="cls-1" d="M121.34,142.24c-.35,3.01-1.46,5.33-3.33,6.96-1.87,1.63-4.35,2.45-7.45,2.45-3.36,0-6.05-1.2-8.08-3.61-2.02-2.41-3.04-5.63-3.04-9.67v-2.73c0-2.64.47-4.97,1.42-6.97.94-2,2.28-3.54,4.01-4.62,1.73-1.07,3.74-1.61,6.02-1.61,3.02,0,5.44.84,7.27,2.53,1.82,1.69,2.88,4.02,3.18,7h-3.77c-.33-2.27-1.03-3.92-2.12-4.94-1.09-1.02-2.61-1.53-4.56-1.53-2.4,0-4.27.89-5.63,2.66-1.36,1.77-2.04,4.29-2.04,7.56v2.76c0,3.09.64,5.55,1.93,7.37,1.29,1.82,3.09,2.74,5.41,2.74,2.08,0,3.68-.47,4.79-1.42,1.11-.94,1.85-2.59,2.22-4.93h3.77Z"/>
          <path class="cls-1" d="M140.54,151.27c-.21-.42-.38-1.16-.51-2.23-1.68,1.75-3.69,2.62-6.02,2.62-2.08,0-3.79-.59-5.13-1.77-1.33-1.18-2-2.67-2-4.48,0-2.2.84-3.91,2.51-5.13,1.67-1.22,4.03-1.83,7.06-1.83h3.52v-1.66c0-1.26-.38-2.27-1.13-3.02-.76-.75-1.87-1.12-3.34-1.12-1.29,0-2.37.33-3.24.98-.87.65-1.31,1.44-1.31,2.36h-3.63c0-1.05.37-2.07,1.12-3.06.75-.98,1.76-1.76,3.05-2.33,1.28-.57,2.69-.86,4.23-.86,2.43,0,4.34.61,5.72,1.83,1.38,1.22,2.1,2.89,2.15,5.03v9.73c0,1.94.25,3.48.74,4.63v.31h-3.79ZM134.54,148.51c1.13,0,2.21-.29,3.22-.88s1.75-1.35,2.21-2.29v-4.34h-2.83c-4.43,0-6.64,1.3-6.64,3.89,0,1.13.38,2.02,1.13,2.66.75.64,1.73.96,2.91.96Z"/>
          <path class="cls-1" d="M154.25,130.13l.1,2.34c1.55-1.82,3.64-2.73,6.27-2.73,2.96,0,4.97,1.13,6.04,3.4.7-1.02,1.62-1.84,2.74-2.46,1.13-.62,2.46-.94,3.99-.94,4.64,0,6.99,2.45,7.07,7.36v14.16h-3.61v-13.95c0-1.51-.35-2.64-1.04-3.39-.69-.75-1.85-1.12-3.48-1.12-1.34,0-2.45.4-3.34,1.2-.89.8-1.4,1.88-1.54,3.23v14.02h-3.63v-13.85c0-3.07-1.5-4.61-4.51-4.61-2.37,0-3.99,1.01-4.86,3.03v15.43h-3.61v-21.13h3.42Z"/>
          <path class="cls-1" d="M205.36,140.93c0,3.22-.74,5.81-2.21,7.77-1.47,1.97-3.46,2.95-5.98,2.95s-4.58-.81-6.05-2.44v10.18h-3.61v-29.26h3.3l.18,2.34c1.47-1.82,3.52-2.73,6.13-2.73s4.55.96,6.03,2.87,2.22,4.58,2.22,7.99v.33ZM201.75,140.52c0-2.38-.51-4.26-1.52-5.64-1.02-1.38-2.41-2.07-4.18-2.07-2.19,0-3.83.97-4.92,2.91v10.1c1.08,1.93,2.73,2.89,4.96,2.89,1.73,0,3.11-.69,4.13-2.06,1.02-1.37,1.53-3.41,1.53-6.12Z"/>
          <path class="cls-1" d="M211.57,124.53c0-.59.18-1.08.54-1.48.36-.4.89-.61,1.59-.61s1.24.2,1.6.61c.36.4.55.9.55,1.48s-.18,1.07-.55,1.46c-.37.39-.9.59-1.6.59s-1.23-.2-1.59-.59c-.36-.39-.54-.88-.54-1.46ZM215.48,151.27h-3.61v-21.13h3.61v21.13Z"/>
          <path class="cls-1" d="M226.27,130.13l.12,2.66c1.61-2.03,3.72-3.05,6.33-3.05,4.47,0,6.72,2.52,6.76,7.56v13.96h-3.61v-13.98c-.01-1.52-.36-2.65-1.04-3.38-.68-.73-1.75-1.09-3.19-1.09-1.17,0-2.2.31-3.09.94s-1.58,1.45-2.07,2.46v15.06h-3.61v-21.13h3.42Z"/>
          <path class="cls-1" d="M245.67,140.52c0-3.29.76-5.91,2.29-7.86,1.52-1.95,3.54-2.92,6.05-2.92s4.59.91,6.04,2.73l.18-2.34h3.3v20.62c0,2.73-.81,4.89-2.43,6.46-1.62,1.58-3.8,2.36-6.53,2.36-1.52,0-3.01-.33-4.47-.98-1.46-.65-2.57-1.54-3.34-2.68l1.88-2.17c1.55,1.91,3.44,2.87,5.68,2.87,1.76,0,3.13-.5,4.11-1.48.98-.99,1.47-2.38,1.47-4.18v-1.82c-1.45,1.67-3.42,2.5-5.92,2.5s-4.48-1-6.01-2.99c-1.53-1.99-2.29-4.71-2.29-8.14ZM249.3,140.93c0,2.38.49,4.25,1.46,5.62.98,1.36,2.34,2.04,4.1,2.04,2.28,0,3.95-1.04,5.02-3.11v-9.65c-1.11-2.02-2.77-3.03-4.98-3.03-1.76,0-3.13.68-4.12,2.05-.99,1.37-1.48,3.39-1.48,6.07Z"/>
        </g>
      </g>
    </g>
  </g>
</svg>