<?xml version="1.0" encoding="UTF-8"?>
<svg xmlns="http://www.w3.org/2000/svg" version="1.1" xmlns:xlink="http://www.w3.org/1999/xlink" viewBox="0 0 470 148">
  <defs>
    <style>
      .cls-1 {
        fill: #ed1c24;
      }

      .cls-2 {
        fill: none;
      }

      .cls-3 {
        fill: #010101;
      }

      .cls-4 {
        clip-path: url(#clippath);
      }
    </style>
    <clipPath id="clippath">
      <rect class="cls-2" x="74.09" y="2.84" width="150.43" height="142.31"/>
    </clipPath>
  </defs>
  <!-- Generator: Adobe Illustrator 28.7.1, SVG Export Plug-In . SVG Version: 1.2.0 Build 142)  -->
  <g>
    <g id="Layer_1">
      <g>
        <g class="cls-4">
          <path class="cls-3" d="M150.68,120.48v-22.59c12.91-.59,23.26-10.37,23.88-22.67h23.79c-.53,24.76-21.58,44.68-47.67,45.26M100.63,75.3h23.88c.53,12.22,10.88,22,23.7,22.59v22.59c-26-.67-46.96-20.58-47.58-45.18M148.2,28.03v22.59c-12.73.67-22.99,10.29-23.7,22.34h23.7v-22.42h2.48v22.34h23.88c-.71-12.13-10.97-21.75-23.88-22.34v-22.59c26,.59,46.96,20.41,47.67,44.93h-23.79v2.34h-23.88v22.67h-2.48v-22.59h-23.7v-2.34h-23.88c.8-24.51,21.67-44.26,47.58-44.93M224.53,72.87h-23.61c-.71-25.85-22.82-46.69-50.23-47.27V2.84h-2.48v22.76c-27.33.67-49.35,21.5-50.06,47.27h-24.05v2.34h24.05c.62,25.94,22.64,46.85,50.06,47.52v22.34h2.48v-22.34c27.42-.59,49.61-21.59,50.23-47.52h23.61v-2.34Z"/>
        </g>
        <g>
          <path class="cls-1" d="M65.31,54.19c-1.44-4.71-3.53-9.29-5.76-11.64-2.75-2.72-4.45-3.22-10.73-3.22h-9.82c-4.45,0-4.97.25-4.97,4.46v26.99h14c7.72,0,8.77-1.86,10.73-10.52h4.84v27.49h-4.97c-1.44-8.42-3.4-10.52-10.6-10.52h-14v19.32c0,11.39.79,12.26,12.56,13v4.58H4.71v-4.58c9.95-.87,11.12-1.61,11.12-13v-45.57c0-11.02-1.18-12.01-11.12-12.75v-4.58h44.37c11.26,0,17.8-.12,19.89-.25.13,2.1.79,12.75,1.44,20.06l-5.1.74Z"/>
          <path class="cls-1" d="M223.94,33.63h39.66v4.58c-9.42,1.11-10.86,1.73-10.86,12.13v20.8c2.75-.74,5.89-2.72,10.21-6.56,8.9-8.3,14.66-14.98,18.59-19.69,3.14-3.84,2.36-5.7-3.67-6.44l-2.49-.25v-4.58h34.29v4.58c-9.03,1.11-13.87,1.73-22.12,10.15-5.1,5.08-11.52,11.27-17.28,17.21,8.25,10.9,18.46,24.15,28.53,36.16,4.84,5.94,6.54,6.81,13.22,7.8v4.58h-26.05c-5.5-7.06-17.01-22.04-26.31-34.55-2.75-3.71-4.84-4.46-6.94-4.09v21.92c0,10.52.92,10.9,10.99,12.13v4.58h-39.79v-4.58c9.82-.99,11.13-1.61,11.13-12.13v-47.05c0-10.4-1.31-11.27-11.13-12.13v-4.58Z"/>
          <path class="cls-1" d="M401.29,38.21c-8.38.74-10.6,3.1-11.12,7.55-.39,3.71-.65,7.92-.65,16.59v16.22c0,10.65-1.83,21.42-9.29,28.85-6.02,5.94-15.31,8.54-24.61,8.54-8.64,0-17.28-1.73-23.43-6.44-7.59-5.45-11.26-13-11.26-26.87v-31.33c0-11.39-1.18-12.26-11.12-13.12v-4.58h40.44v4.58c-9.82.87-10.99,1.73-10.99,13.12v32.94c0,13.87,7.2,23.03,21.2,23.03,15.57,0,22.38-10.9,22.38-29.47v-15.48c0-8.54-.39-13-.65-16.72-.52-5.7-4.19-6.93-13.35-7.43v-4.58h32.46v4.58Z"/>
          <path class="cls-1" d="M456.91,54.06c-2.62-7.92-6.28-16.96-18.32-16.96-7.59,0-12.57,5.08-12.57,12.01s4.84,10.9,16.36,16.34c14,6.56,22.9,13,22.9,25.26,0,14.61-12.83,25.26-31.54,25.26-8.38,0-15.84-2.1-21.99-3.84-.79-2.85-3.01-15.72-3.93-21.54l5.1-1.11c2.62,7.8,9.95,21.3,22.77,21.3,7.98,0,12.83-4.7,12.83-12.63,0-7.18-4.71-11.39-15.71-16.96-13.61-6.93-22.51-13.13-22.51-26s10.73-23.28,30.36-23.28c9.03,0,15.84,1.86,18.72,2.23.52,4.58,1.44,11.02,2.49,18.82l-4.97,1.11Z"/>
        </g>
        <text/>
      </g>
    </g>
  </g>
</svg>