<?xml version="1.0" encoding="utf-8"?>
<!-- Generator: Adobe Illustrator 27.3.1, SVG Export Plug-In . SVG Version: 6.00 Build 0)  -->
<svg version="1.1" id="Layer_1" xmlns="http://www.w3.org/2000/svg" xmlns:xlink="http://www.w3.org/1999/xlink" x="0px" y="0px"
	 viewBox="0 0 391.2 239.5" style="enable-background:new 0 0 391.2 239.5;" xml:space="preserve">
<g>
	<path d="M366.3,40.9H26.2c-13.3,0-24-8.9-24-20s10.7-20,24-20h340.2c13.3,0,24,8.9,24,20S379.6,40.9,366.3,40.9z"/>
</g>
<g>
	<path d="M366,139.8H25.8c-13.3,0-24-8.9-24-20s10.7-20,24-20H366c13.3,0,24,8.9,24,20S379.2,139.8,366,139.8z"/>
</g>
<g>
	<path d="M366.3,238.6H26.2c-13.3,0-24-8.9-24-20c0-11.1,10.7-20,24-20h340.2c13.3,0,24,8.9,24,20
		C390.4,229.7,379.6,238.6,366.3,238.6z"/>
</g>
</svg>
