<?xml version="1.0" encoding="utf-8"?>
<!-- Generator: Adobe Illustrator 26.0.3, SVG Export Plug-In . SVG Version: 6.00 Build 0)  -->
<svg version="1.1" id="Layer_1" xmlns="http://www.w3.org/2000/svg" xmlns:xlink="http://www.w3.org/1999/xlink" x="0px" y="0px"
	 viewBox="0 0 396.9 396.9" style="enable-background:new 0 0 396.9 396.9;" xml:space="preserve">
<style type="text/css">
	.st0{fill:#666666;}
</style>
<path class="st0" d="M396.5,110.2c-0.2-42.2-18.8-74.3-55.2-95.8c-16.2-9.6-34.1-13.7-53-13.7c-60,0-120.1-0.5-180.1,0.2
	C61.9,1.4,28.6,23.8,8.7,65.5c-4.6,9.7-7,20.2-8.1,31c-0.1,1.5-0.5,2.8-0.7,4.2c0,65.6,0,131.2-0.1,196.9c1.1,6,1.6,12.2,3.3,18.1
	c12.1,43.3,40.3,69.9,84.1,79.8c4.2,0.9,8.4,1.3,12.6,1.9c22.9,0,45.7,0,68.5,0v-23.2v-30.3v-80.2v-19.5v-3.8h-49.4v-42.7h49.7v-3.2
	v-20.1v-31.9c0,0-4.9-68.3,65.4-83.3c2.1-0.4,4.9-0.8,8.3-0.9h28.2v44.3h-25.4c-36.1,0-33.9,33-33.9,33v61.3h9.9h13.4h36.7
	l-10.6,43.5h-49.1v3.8v19.5v78.6v1.5v53.5h0.5c5.1,0,10.3,0,15.4,0c23.1,0,46.1,0,69.2,0c6-1.1,12.3-1.6,18.1-3.2
	c43.2-12.1,69.8-40.2,79.6-83.9c1.6-7.3,2-14.8,2-22.3C396.7,228.8,396.8,169.5,396.5,110.2z M373.3,289.4
	c-0.1,40.6-26.8,73.7-66.5,82.7c-6.1,1.5-12.5,1.9-18.8,1.9c-17.7,0.1-35.4,0.1-53.1,0.1v-4c0-18,0-35.9,0-53.8v-52.5
	c1.5,0,2.8,0,4.2,0c12,0,24-0.1,36.1,0c2.1,0,3.3-0.5,3.8-2.7c7.2-28.3,21.8-85.3,22-86.5c-21.9,0-43.9,0-66.1,0
	c-0.1-1.8-0.2-3.1-0.2-4.5c0-10.7,0-21.4,0-32.1c0-9.6,3.4-13.1,13-13.1c14,0,27.9,0,41.8,0c1.4,0,2.8,0,4.4,0c0-2,0-3.9,0-5.9V44.4
	c0-2.8,0-5.7,0-8.5c-0.7-0.1-1.2-0.3-1.7-0.3c-18.5,0.1-37-0.5-55.4,0.7c-28.7,1.9-52.1,14.9-70,37.3c-15,18.6-21.5,40.2-21.5,64
	c0,12.1,0,24.2,0,36.8H113c-4.5,0-9,0-13.5-0.1c-2.9-0.1-3.8,0.7-3.8,3.6c0,1.6,0,3.2,0,4.8v72.6c0,1.6,0,3.1,0,4.7
	c0,2.7,0.7,3.6,3,3.7H145c0,36.3,0,72.3,0,108.6c0,0,0,0-0.1,0v1.8c-12.1,0-24.1,0-36.2,0c-41.1-0.1-74.4-26.5-83.5-66.6
	c-1.4-6.2-1.8-12.8-1.8-19.2c-0.2-59.5-0.2-119.1-0.1-178.5c0-41,25.6-73.8,65.5-83.5c6.7-1.6,13.8-2.1,20.7-2.2
	c29.7-0.2,59.4-0.1,89.1-0.1c29.9,0,59.7-0.3,89.5,0c36,0.6,62.1,17.3,77.9,49.7c5.3,11,7.5,22.8,7.5,34.9
	C373.4,168.8,373.5,229.1,373.3,289.4z"/>
</svg>
