<?xml version="1.0" encoding="utf-8"?>
<!-- Generator: Adobe Illustrator 26.0.3, SVG Export Plug-In . SVG Version: 6.00 Build 0)  -->
<svg version="1.1" id="Layer_1" xmlns="http://www.w3.org/2000/svg" xmlns:xlink="http://www.w3.org/1999/xlink" x="0px" y="0px"
	 viewBox="0 0 396.9 396.9" style="enable-background:new 0 0 396.9 396.9;" xml:space="preserve">
<style type="text/css">
	.st0{fill:#666666;}
</style>
<g>
	<path class="st0" d="M296.8,397.5c-65.6,0-131.2,0-196.8,0c-4.2-0.7-8.4-1.1-12.6-1.9c-43.8-9.9-72-36.5-84.1-79.8
		c-1.6-5.9-2.2-12.1-3.3-18.1C0.1,232,0.1,166.4,0.1,100.8c0.2-1.4,0.6-2.7,0.7-4.2c1.2-10.8,3.6-21.3,8.1-31
		C28.8,23.9,62.1,1.5,108.4,1c60-0.7,120.1-0.2,180.1-0.2c18.8,0,36.8,4.1,53,13.7c36.4,21.4,55,53.6,55.2,95.8
		c0.3,59.3,0.2,118.6,0,177.8c0,7.5-0.4,15-2,22.3c-9.8,43.8-36.5,71.8-79.6,83.9C309.2,395.8,302.9,396.4,296.8,397.5z M198.6,24
		c-29.7,0-59.4-0.1-89.1,0.1c-6.9,0.1-14,0.6-20.7,2.2C49,36,23.4,68.8,23.4,109.9c-0.1,59.5-0.1,119.1,0.1,178.5
		c0,6.4,0.5,13,1.8,19.2c9.1,40.1,42.4,66.5,83.5,66.6c59.8,0.1,119.5,0.1,179.3-0.1c6.3,0,12.7-0.5,18.8-1.9
		c39.8-9,66.5-42.1,66.5-82.7c0.2-60.3,0.1-120.6,0-180.9c0-12.1-2.1-24-7.5-34.9C350.1,41.3,324,24.6,288,24
		C258.2,23.7,228.5,24,198.6,24z"/>
	<path class="st0" d="M90,198.6c0.6-60,49.7-108.5,108.9-107.9c60,0.7,108.6,49.7,107.9,109c-0.6,60.1-49.7,108.6-108.9,108
		C137.9,306.9,89.3,257.8,90,198.6z M283.7,199.3c0.2-46.8-38.2-85.3-85.2-85.4c-46.7-0.1-84.9,38-85.3,84.8
		c-0.3,46.7,37.9,85.3,85,85.6C244.9,284.5,283.5,246.2,283.7,199.3z"/>
	<path class="st0" d="M277.4,84.2c-0.1-17.4,14.4-32,31.9-32.1c17.3-0.2,32,14.5,32.2,31.9c0.2,17.3-14.5,32-31.9,32.1
		C292.2,116.4,277.5,101.8,277.4,84.2z M309.6,75.4c-4.6-0.1-8.7,4-8.8,8.5c-0.1,4.7,4.2,9,8.8,8.9c4.6-0.1,8.6-4.2,8.6-8.7
		C318.2,79.6,314.2,75.5,309.6,75.4z"/>
</g>
</svg>
