<?xml version="1.0" encoding="utf-8"?>
<!-- Generator: Adobe Illustrator 26.0.3, SVG Export Plug-In . SVG Version: 6.00 Build 0)  -->
<svg version="1.1" id="Layer_1" xmlns="http://www.w3.org/2000/svg" xmlns:xlink="http://www.w3.org/1999/xlink" x="0px" y="0px"
	 viewBox="0 0 96.4 97.8" style="enable-background:new 0 0 96.4 97.8;" xml:space="preserve">
<g>
	<path d="M26.1,56.1c4.6-1.9,8.7-4.7,13.2-7.1c-0.9-1-1.2-1.7-1.7-2C32.4,43.5,27,40.5,21,38.7c-1.3-0.4-2.7-0.6-4.1-1
		c-4.2-1.3-8.3-1.3-12,1.2c-3.9,2.6-4.5,6.7-4.4,11.1c0.1,6.7,4.6,11.3,11,10.4C16.5,59.6,21.4,58,26.1,56.1z"/>
	<path d="M77.5,59c3.4,0.7,6.8,1.3,10.2,1.3c3.3-0.1,7.5-3.1,8-6.7c0.4-3.2,0.3-6.5,0.1-9.8c-0.2-3.3-4.9-6.8-8.1-6.9
		c-5.6-0.2-10.6,1.5-15.6,3.7c-5,2.2-9.8,4.7-14.1,8.2c0.3,0.5,0.4,1.2,0.8,1.4C64.7,53.8,70.6,57.5,77.5,59z"/>
	<path d="M16.6,32.9c4.4,2.3,9,4.4,13.7,6.2c3.7,1.4,7.7,2.1,11.5,3.1c0.2-0.2,0.4-0.5,0.6-0.7c-0.4-1.4-1-2.8-1.2-4.3
		c-1.2-7.4-3.9-14.2-8.4-20.2c-1.6-2.2-3.9-4.4-6.4-5.4c-7.1-3.1-13.4,3-15.8,9C9.1,24.5,12.1,30.6,16.6,32.9z"/>
	<path d="M49.2,39.6c2.1-3.6,4.2-6.6,5.7-9.9c1.6-3.4,2.4-7.1,4-10.4c1.7-3.9,1.8-7.9,0.8-11.8c-0.4-1.7-1.8-3.3-3.1-4.6
		C53.7,0,49.9,0.7,46.3,0.7c-5.8-0.1-9.1,3.7-9.2,9.6c-0.1,8.3,3.5,15.2,7,22.3C45.3,34.9,47.2,36.9,49.2,39.6z"/>
	<path d="M52.6,64.6c-1-2.2-2.8-4-4.2-6c-0.3,0.1-0.7,0.1-1,0.2c-1.8,3.2-3.6,6.5-5.4,9.7c-3.7,6.7-5.6,13.7-4.6,21.4
		c0.4,2.8,2,5,4.5,6c4.1,1.7,8.5,1.6,12.8,0.3c1-0.3,2-1,2.7-1.8c4.1-4.2,3.4-9.5,1.9-14.2C57.7,74.8,55.1,69.7,52.6,64.6z"/>
	<path d="M41.2,55.3c-3.6,0.9-6.7,1.4-9.7,2.6c-5,2-10.1,4.1-14.7,6.9c-2.9,1.7-5.2,4.5-6.2,8c-1.2,4.7,1.6,7.9,4.4,11
		c3.1,3.5,6.9,4.2,11.2,2.8c4.6-1.5,6.4-5.8,8.6-9.5c1.6-2.7,2.3-5.8,3.7-8.6C40.6,64.5,40.7,60.2,41.2,55.3z"/>
</g>
<g>
	<path d="M57.1,41.8c8.5-0.8,16.1-4.2,23.1-8.7c2.1-1.4,4.2-3.6,5.1-5.9c0.1-0.2,1-1.7,1.1-5.6c-0.3-4.4-3.6-7.5-7.5-10
		c-4-2.6-9.7-1.5-13.1,3.4c-2.5,3.6-5.1,7-6.3,11.3c-1.4,5.1-3.1,10-4.8,15.5C56.2,41.8,56.6,41.8,57.1,41.8z"/>
	<path d="M86.3,77.3c1-1.8,0.2-7.2-1.8-9.3c-4.7-4.9-10.6-7.6-16.9-9.6c-3.9-1.2-8-2.1-12-3.1c-0.3,0.3-0.5,0.6-0.8,0.8
		c0.8,2.8,1.7,5.5,2.3,8.3c1.5,6.7,4.6,12.6,8.9,18c3.9,4.9,9.9,5.7,14.8,1.7c1.1-0.9,2.1-2,3.2-2.9c0.5-0.4,0.9-0.9,1.2-1.4
		L86.3,77.3z"/>
</g>
</svg>
